<svg aria-hidden="true" style="position: absolute; width: 0; height: 0; overflow: hidden;" version="1.1" xmlns="http://www.w3.org/2000/svg" xmlns:xlink="http://www.w3.org/1999/xlink">
<defs>
<symbol id="icon-arrow-mob" viewBox="0 0 32 32">
<path fill="#0f7c41" style="fill: var(--color1, #0f7c41)" d="M32 17.625l-5.375 1.774c-4.023-11.030-14.572-19.070-26.465-19.399-0.41-0.012 0.083 4.238 0.126 4.582 0.065 0.485 0.413 4.45 1.038 4.468 8.612 0.239 17.243 4.873 22.408 11.723l-5.055 1.792 10.935 9.434 2.387-14.375z"></path>
</symbol>
<symbol id="icon-arrow-tab" viewBox="0 0 57 32">
<path fill="#0f7c41" style="fill: var(--color1, #0f7c41)" d="M52.507 21.022l-6.464-5.098c-10.986 13.075-29.405 18.816-45.824 13.349-0.566-0.187 2.222-5.752 2.452-6.2 0.33-0.631 2.778-5.877 3.642-5.591 11.89 3.957 25.992 1.917 36.46-4.876l-6.017-4.964 19.639-7.455-3.889 20.836z"></path>
</symbol>
<symbol id="icon-x" viewBox="0 0 32 32">
<path fill="#004125" style="fill: var(--color2, #004125)" d="M8.267 25.333l-1.867-1.867 7.467-7.467-7.467-7.467 1.867-1.867 7.467 7.467 7.467-7.467 1.867 1.867-7.467 7.467 7.467 7.467-1.867 1.867-7.467-7.467-7.467 7.467z"></path>
</symbol>
</defs>
</svg>
